# AST/ASF file generated using VICON BodyLanguage
# -----------------------------------------------
:version 1.10
:name VICON
:units
  mass 1.0
  length 0.45
  angle deg
:documentation
   .ast/.asf automatically generated from VICON data using
   VICON BodyBuilder and BodyLanguage model FoxedUp or BRILLIANT.MOD
:root
   order TX TY TZ RX RY RZ
   axis XYZ
   position 0 0 0  
   orientation 0 0 0 
:bonedata
  begin
     id 1 
     name lhipjoint
     direction 0.653368 -0.678499 0.335782 
     length 2.51848 
     axis 0 0 0  XYZ
  end
  begin
     id 2 
     name lfemur
     direction 0.34202 -0.939693 0  
     length 6.57749  
     axis 0 0 20  XYZ
    dof rx ry rz
    limits (-160.0 20.0)
           (-70.0 70.0)
           (-60.0 70.0)
  end
  begin
     id 3 
     name ltibia
     direction 0.34202 -0.939693 0   
     length 7.94618   
     axis 0 0 20   XYZ
    dof rx
    limits (-10.0 170.0)
  end
  begin
     id 4 
     name lfoot
     direction 0.0811271 -0.222895 0.971461   
     length 2.31339   
     axis -90 7.62852e-016 20   XYZ
    dof rx rz
    limits (-45.0 90.0)
           (-70.0 20.0)
  end
  begin
     id 5 
     name ltoes
     direction 1.53568e-011 -4.21885e-011 1   
     length 1.15935   
     axis -90 7.62852e-016 20   XYZ
    dof rx
    limits (-90.0 20.0)
  end
  begin
     id 6 
     name rhipjoint
     direction -0.640058 -0.688614 0.340788   
     length 2.48149  
     axis 0 0 0  XYZ 
  end
  begin
     id 7 
     name rfemur
     direction -0.34202 -0.939693 0   
     length 6.57875   
     axis 0 0 -20   XYZ
    dof rx ry rz
    limits (-160.0 20.0)
           (-70.0 70.0)
           (-70.0 60.0)
  end
  begin
     id 8 
     name rtibia
     direction -0.34202 -0.939693 0   
     length 7.977   
     axis 0 0 -20   XYZ
    dof rx
    limits (-10.0 170.0)
 end
 begin
     id 9 
     name rfoot
     direction -0.0979793 -0.269196 0.958089   
     length 2.19857  
     axis -90 -7.62852e-016 -20   XYZ
    dof rx rz
    limits (-45.0 90.0)
           (-20.0 70.0)
  end
  begin
     id 10 
     name rtoes
     direction -1.53556e-011 -4.21868e-011 1   
     length 1.09838   
     axis -90 -7.62852e-016 -20   XYZ
    dof rx
    limits (-90.0 20.0)
  end
  begin
     id 11 
     name lowerback
     direction 0.0149039 0.998517 -0.0523597   
     length 2.10809   
     axis 0 0 0   XYZ
    dof rx ry rz
    limits (-20.0 45.0)
           (-30.0 30.0)
           (-30.0 30.0)
  end
  begin
     id 12 
     name upperback
     direction -0.00882659 0.999418 -0.0329624   
     length 2.1102   
     axis 0 0 0   XYZ
    dof rx ry rz
    limits (-20.0 45.0)
           (-30.0 30.0)
           (-30.0 30.0)
  end
  begin
     id 13 
     name thorax
     direction -0.0165585 0.999826 -0.0085833   
     length 2.11039   
     axis 0 0 0   XYZ
    dof rx ry rz
    limits (-20.0 45.0)
           (-30.0 30.0)
           (-30.0 30.0)
  end
  begin
     id 14 
     name lowerneck
     direction -0.0130877 0.999911 0.00260353   
     length 1.73253   
     axis 0 0 0   XYZ
    dof rx ry rz
    limits (-20.0 45.0)
           (-30.0 30.0)
           (-30.0 30.0)
  end
  begin
     id 15 
     name upperneck
     direction -0.0348454 0.928205 -0.370435   
     length 1.66692   
     axis 0 0 0   XYZ
    dof rx ry rz
    limits (-20.0 45.0)
           (-30.0 30.0)
           (-30.0 30.0)
  end
  begin
     id 16
     name head
     direction -0.00807754 0.992494 -0.122026  
     length 1.72765  
     axis 0 0 0   XYZ
    dof rx ry rz
    limits (-20.0 45.0)
           (-30.0 30.0)
           (-30.0 30.0)
  end
  begin
     id 17 
     name lclavicle
     direction 0.987582 0.144023 0.0627671  
     length 3.49235  
     axis 0 0 0   XYZ
    dof ry rz
    limits (-20.0 10.0)
           (0.0 20.0)
  end
  begin
     id 18 
     name lhumerus
     direction 1 -4.48958e-011 -1.45183e-018   
     length 5.41917   
     axis 180 -30 -90   XYZ
    dof rx ry rz
    limits (-60.0 90.0)
           (-90.0 90.0)
           (-90.0 90.0)
  end
  begin
     id 19
     name lradius
     direction 1 -4.48999e-011 5.75106e-027   
     length 2.44373   
     axis 180 -30 -90   XYZ
    dof rx
    limits (-10.0 170.0)
  end
  begin
     id 20
     name lwrist
     direction 1 -4.48987e-011 1.53461e-026   
     length 1.22186   
     axis -1.09697e-014 90 90   XYZ
    dof ry
    limits (-180.0 0.0)
 end
  begin
     id 21 
     name lhand
     direction 1 -4.48881e-011 3.06923e-026   
     length 0.727502   
     axis -1.95843e-014 90 90   XYZ
    dof rx rz
    limits (-90.0 90.0)
           (-45.0 45.0)
  end
  begin
     id 22 
     name lfingers
     direction 1 -4.48907e-011 6.13845e-026   
     length 0.586531   
     axis -3.91686e-014 90 90   XYZ
    dof rx
    limits (0.0 90.0)
  end
  begin
     id 23
     name lthumb
     direction 0.707107 -6.3487e-011 0.707107   
     length 0.842145   
     axis -90 45 2.85299e-015   XYZ
    dof rx rz
    limits (-45.0 45.0)
           (-45.0 45.0)
  end
  begin
     id 24 
     name rclavicle
     direction -0.980998 0.169556 0.0943023   
     length 3.29272  
     axis 0 0 0   XYZ 
    dof ry rz
    limits (-10.0 20.0)
           (-20.0 0.0)
  end
  begin
     id 25 
     name rhumerus
     direction -1 -1.83355e-005 2.45537e-005  
     length 5.58976   
     axis 180 30 90   XYZ
    dof rx ry rz
    limits (-90.0 60.0)
           (-90.0 90.0)
           (-90.0 90.0)
  end
  begin
     id 26 
     name rradius
     direction -1 -4.48967e-011 5.97228e-027   
     length 2.4806   
     axis 180 30 90   XYZ
    dof rx
    limits (-10.0 170.0)
  end
  begin
     id 27 
     name rwrist
     direction -1 -4.48963e-011 1.53461e-026   
     length 1.2403   
     axis -1.09697e-014 -90 -90   XYZ
    dof ry
    limits (-180.0 0.0)
  end
  begin
     id 28
     name rhand
     direction -1 -4.48881e-011 3.06923e-026   
     length 0.816009   
     axis -1.95843e-014 -90 -90   XYZ
    dof rx rz
    limits (-90.0 90.0)
           (-45.0 45.0)
  end
  begin
     id 29
     name rfingers
     direction -1 -4.49018e-011 6.13845e-026   
     length 0.657887   
     axis -3.91686e-014 -90 -90   XYZ
    dof rx
    limits (0.0 90.0)
  end
  begin
     id 30
     name rthumb
     direction -0.707107 -6.34872e-011 0.707107   
     length 0.944599   
     axis -90 -45 -2.85299e-015   XYZ
    dof rx rz
    limits (-45.0 45.0)
           (-45.0 45.0)
  end
:hierarchy
  begin
    root lhipjoint rhipjoint lowerback
    lhipjoint lfemur
    lfemur ltibia
    ltibia lfoot
    lfoot ltoes
    rhipjoint rfemur
    rfemur rtibia
    rtibia rfoot
    rfoot rtoes
    lowerback upperback
    upperback thorax
    thorax lowerneck lclavicle rclavicle
    lowerneck upperneck
    upperneck head
    lclavicle lhumerus
    lhumerus lradius
    lradius lwrist
    lwrist lhand lthumb
    lhand lfingers
    rclavicle rhumerus
    rhumerus rradius
    rradius rwrist
    rwrist rhand rthumb
    rhand rfingers
  end

#!OML:ASF F:\VICON\USERDATA\INSTALL\rory3\rory3.ASF
:FULLY-SPECIFIED
:DEGREES
81
root -0.279589 16.2135 -14.9499 -152.872 0.914908 177.552
lowerback -19.926 -1.32749 -3.22585
upperback -9.57196 0.810445 -0.936764
thorax 0.816673 1.33671 1.00863
lowerneck -8.17548 2.07847 -1.41292
upperneck 37.8266 -2.97383 2.83659
head 14.425 -2.92394 0.534213
rclavicle 1.35453e-014 -1.31198e-014
rhumerus -43.7253 -11.5147 -69.9804
rradius 12.5751
rwrist 10.0503
rhand 17.8454 10.4636
rfingers 7.12502
rthumb 42.5229 -13.9488
lclavicle 1.35453e-014 -1.31198e-014
lhumerus -48.156 14.9359 65.4421
lradius 23.7252
lwrist 1.94664
lhand 26.7981 23.0428
lfingers 7.12502
lthumb 50.8067 43.8314
rfemur -31.5783 -16.386 28.9571
rtibia 60.1401
rfoot 31.034 -23.3359
rtoes 19.3875
lfemur -46.7685 3.51519 -37.9763
ltibia 41.7117
lfoot -35.9297 23.3984
ltoes 7.61659
82
root -0.286553 16.2242 -14.9474 -153.004 0.719462 177.805
lowerback -19.9467 -1.23541 -2.87887
upperback -9.20413 0.776105 -0.895521
thorax 1.22622 1.25614 0.857884
lowerneck -8.93022 1.97468 -1.43347
upperneck 37.8497 -3.01266 2.8608
head 14.6111 -2.8876 0.54284
rclavicle 6.88292e-015 -1.27222e-014
rhumerus -42.9862 -12.1549 -69.6953
rradius 12.661
rwrist 10.038
rhand 18.0845 9.76314
rfingers 7.12502
rthumb 42.7467 -14.5717
lclavicle 6.88292e-015 -1.27222e-014
lhumerus -47.3078 13.2294 67.2209
lradius 23.9603
lwrist 4.257
lhand 26.5888 23.7989
lfingers 7.12502
lthumb 50.6157 44.6923
rfemur -31.5135 -16.5112 29.2405
rtibia 59.9892
rfoot 32.3521 -21.7791
rtoes 14.8018
lfemur -46.6168 3.30978 -37.5532
ltibia 41.7392
lfoot -36.0223 23.4581
ltoes 7.38013
83
root -0.265049 16.2152 -14.9254 -152.994 1.43124 177.273
lowerback -19.9026 -1.19748 -3.91119
upperback -8.90168 0.944009 -1.04115
thorax 1.51259 1.32244 1.32723
lowerneck -9.71935 1.84837 -1.52252
upperneck 37.7736 -3.03551 2.92582
head 14.7595 -2.83546 0.586739
rclavicle -9.35259e-015 -1.47101e-014
rhumerus -42.2681 -12.9084 -69.309
rradius 12.717
rwrist 10.2396
rhand 18.3469 9.36801
rfingers 7.12502
rthumb 42.9921 -14.8807
lclavicle -9.35259e-015 -1.47101e-014
lhumerus -46.3887 10.8039 69.4426
lradius 24.251
lwrist 7.04701
lhand 26.5629 24.0625
lfingers 7.12502
lthumb 50.5921 44.9687
rfemur -31.5579 -15.6158 28.5942
rtibia 60.02
rfoot 30.7722 -24.0807
rtoes 19.1379
lfemur -46.7809 3.47253 -38.2134
ltibia 41.676
lfoot -35.7236 23.9774
ltoes 6.77824
84
root -0.271626 16.2186 -14.9508 -152.827 1.23934 177.387
lowerback -20.2884 -1.23685 -3.60004
upperback -8.93053 0.88411 -1.01979
thorax 1.68402 1.2957 1.16851
lowerneck -9.58059 1.88868 -1.50819
upperneck 37.7499 -2.97787 2.88898
head 14.7128 -2.82123 0.577944
rclavicle 3.4104e-015 1.19271e-015
rhumerus -42.4365 -14.1741 -68.0369
rradius 12.621
rwrist 11.8333
rhand 18.6532 9.49262
rfingers 7.12502
rthumb 43.2784 -14.6542
lclavicle 3.4104e-015 1.19271e-015
lhumerus -46.2637 8.75383 70.8586
lradius 23.8646
lwrist 8.61326
lhand 27.0656 23.4941
lfingers 7.12502
lthumb 51.0505 44.1472
rfemur -31.5372 -15.8107 28.7285
rtibia 59.9021
rfoot 30.4037 -24.2084
rtoes 19.3151
lfemur -46.7528 3.48482 -38.128
ltibia 41.5297
lfoot -35.503 24.0168
ltoes 6.42773
85
root -0.28067 16.2267 -14.96 -152.825 1.04611 177.494
lowerback -20.0609 -1.30183 -3.27462
upperback -9.29426 0.799726 -0.996134
thorax 1.18455 1.29334 0.979967
lowerneck -8.64857 2.04489 -1.31758
upperneck 37.7419 -2.90712 2.77214
head 14.4883 -2.84588 0.504028
rclavicle 1.68346e-015 1.59028e-015
rhumerus -43.1571 -15.6988 -66.2638
rradius 12.447
rwrist 13.8373
rhand 19.1748 9.31902
rfingers 7.12502
rthumb 43.7656 -14.6507
lclavicle 1.68346e-015 1.59028e-015
lhumerus -46.7556 6.75941 71.9148
lradius 23.3681
lwrist 9.57834
lhand 27.8081 22.7102
lfingers 7.12502
lthumb 51.726 42.9772
rfemur -31.4463 -16.0836 28.8316
rtibia 59.8345
rfoot 29.9973 -24.8653
rtoes 20.801
lfemur -46.5736 3.38814 -37.9803
ltibia 41.3527
lfoot -35.4184 24.0763
ltoes 6.61647
86
root -0.262494 16.2244 -14.9574 -152.649 1.82126 176.793
lowerback -19.92 -1.514 -4.43536
upperback -9.6943 0.818558 -1.10507
thorax 0.67066 1.39701 1.51166
lowerneck -7.78649 2.27323 -1.06741
upperneck 37.691 -2.69075 2.6162
head 14.2567 -2.79502 0.425777
rclavicle 1.98785e-015 8.94531e-015
rhumerus -43.7435 -16.8687 -64.6219
rradius 12.0302
rwrist 15.6761
rhand 19.2813 10.0361
rfingers 7.12502
rthumb 43.865 -13.897
lclavicle 1.98785e-015 8.94531e-015
lhumerus -47.4439 4.7848 73.0463
lradius 23.4547
lwrist 10.71
lhand 28.5043 22.2517
lfingers 7.12502
lthumb 52.3573 42.1426
rfemur -31.7046 -15.4074 28.003
rtibia 59.8685
rfoot 29.052 -26.1634
rtoes 23.1879
lfemur -46.7315 3.61589 -38.9176
ltibia 41.1264
lfoot -35.33 24.2477
ltoes 6.42288
87
root -0.255663 16.2231 -14.9396 -152.727 2.11877 176.732
lowerback -19.7792 -1.35422 -4.69102
upperback -9.28087 0.95572 -1.12174
thorax 1.03202 1.405 1.67307
lowerneck -9.01659 2.13638 -1.3633
upperneck 37.8029 -2.69429 2.74667
head 14.5941 -2.74221 0.532257
rclavicle 6.67792e-016 -1.68967e-015
rhumerus -42.8567 -17.8145 -64.0541
rradius 12.1164
rwrist 16.0995
rhand 19.626 9.72895
rfingers 7.12502
rthumb 44.1865 -14.084
lclavicle 6.67792e-016 -1.68967e-015
lhumerus -46.5009 3.40428 74.2019
lradius 23.2381
lwrist 11.0053
lhand 29.2234 21.3501
lfingers 7.12502
lthumb 53.0074 40.8377
rfemur -31.6257 -14.967 27.9072
rtibia 59.8428
rfoot 28.2639 -26.8468
rtoes 24.4227
lfemur -46.6695 3.74888 -39.0439
ltibia 40.9264
lfoot -35.4102 24.1253
ltoes 6.9807
88
root -0.257416 16.2265 -14.9625 -152.655 2.15813 176.742
lowerback -19.9956 -1.38685 -4.61245
upperback -9.37912 0.947445 -1.11844
thorax 1.03808 1.41675 1.63266
lowerneck -8.68806 2.20359 -1.38253
upperneck 37.7957 -2.67356 2.81386
head 14.5157 -2.75231 0.565148
rclavicle 1.00992e-014 -1.55052e-014
rhumerus -42.9183 -17.674 -63.7424
rradius 12.3853
rwrist 16.1016
rhand 19.8602 9.15895
rfingers 7.12502
rthumb 44.4048 -14.5713
lclavicle 1.00992e-014 -1.55052e-014
lhumerus -46.9319 1.77095 75.059
lradius 23.4645
lwrist 11.4469
lhand 29.7541 20.9179
lfingers 7.12502
lthumb 53.4857 40.0977
rfemur -31.5858 -14.9358 27.8274
rtibia 59.7277
rfoot 28.2604 -26.7176
rtoes 23.5483
lfemur -46.5217 3.96953 -39.1698
ltibia 40.7443
lfoot -35.4956 23.6426
ltoes 7.69386
89
root -0.2497 16.2282 -14.9743 -152.656 2.58495 176.594
lowerback -19.9529 -1.33266 -4.90288
upperback -9.47118 1.09011 -1.21111
thorax 0.90559 1.50857 1.72338
lowerneck -8.56788 2.20592 -1.34035
upperneck 37.7788 -2.69433 2.80787
head 14.4807 -2.76389 0.551991
rclavicle -6.06604e-015 -2.38542e-014
rhumerus -42.8584 -17.8786 -63.2183
rradius 12.1852
rwrist 16.7113
rhand 19.6335 9.30592
rfingers 7.12502
rthumb 44.1935 -14.5044
lclavicle -6.06604e-015 -2.38542e-014
lhumerus -47.2582 0.202144 75.7647
lradius 23.7877
lwrist 11.5555
lhand 30.0723 20.7452
lfingers 7.12502
lthumb 53.772 39.7362
rfemur -31.5034 -14.5529 27.5246
rtibia 59.6131
rfoot 27.8415 -27.246
rtoes 24.0894
lfemur -46.482 4.0916 -39.3858
ltibia 40.6906
lfoot -35.868 23.5304
ltoes 8.46455
90
root -0.242539 16.2324 -14.9832 -152.717 2.80332 176.873
lowerback -19.9808 -1.16704 -4.72046
upperback -9.36465 1.24462 -1.19044
thorax 1.02766 1.5603 1.6769
lowerneck -8.67075 2.16557 -1.40068
upperneck 37.701 -2.71147 2.85716
head 14.4686 -2.75748 0.583558
rclavicle -8.97326e-015 1.11319e-014
rhumerus -42.4962 -18.5617 -62.4715
rradius 11.8378
rwrist 17.5214
rhand 19.7234 9.77875
rfingers 7.12502
rthumb 44.2773 -13.9999
lclavicle -8.97326e-015 1.11319e-014
lhumerus -47.1842 -1.14381 76.3013
lradius 23.9176
lwrist 11.1905
lhand 30.2927 20.777
lfingers 7.12502
lthumb 53.97 39.6353
rfemur -31.2096 -14.2232 27.797
rtibia 59.3611
rfoot 28.0374 -26.9085
rtoes 22.4764
lfemur -46.4908 4.09494 -39.0109
ltibia 40.7263
lfoot -36.0104 24.0359
ltoes 8.02632
91
root -0.26024 16.2395 -14.991 -152.793 2.384 177.311
lowerback -19.9773 -1.08327 -3.87923
upperback -9.27661 1.17376 -1.13364
thorax 1.13913 1.48449 1.25037
lowerneck -8.71696 2.18454 -1.41983
upperneck 37.7077 -2.70323 2.92759
head 14.4835 -2.74612 0.616867
rclavicle 2.48326e-015 -1.45113e-014
rhumerus -42.0828 -19.1032 -61.7947
rradius 11.5955
rwrist 18.3723
rhand 19.9812 9.81397
rfingers 7.12502
rthumb 44.5176 -13.8731
lclavicle 2.48326e-015 -1.45113e-014
lhumerus -47.2128 -2.30124 76.7212
lradius 24.0472
lwrist 10.6796
lhand 30.3307 21.3256
lfingers 7.12502
lthumb 54.004 40.1609
rfemur -30.7697 -14.8151 28.3653
rtibia 59.051
rfoot 28.9177 -25.2491
rtoes 18.3703
lfemur -46.3752 4.0517 -38.5023
ltibia 40.82
lfoot -35.7246 24.3924
ltoes 6.79425
92
root -0.268815 16.2498 -15.0022 -152.816 2.23829 177.667
lowerback -19.9886 -1.07177 -3.33473
upperback -9.37992 1.10681 -1.0488
thorax 1.04356 1.44881 1.01676
lowerneck -8.14394 2.26593 -1.35345
upperneck 37.5802 -2.67599 2.96579
head 14.2916 -2.75195 0.625579
rclavicle 1.79527e-015 3.37934e-015
rhumerus -41.8842 -18.7607 -61.5843
rradius 11.6579
rwrist 18.7988
rhand 20.1602 9.43029
rfingers 7.12502
rthumb 44.6843 -14.1926
lclavicle 1.79527e-015 3.37934e-015
lhumerus -47.6953 -3.50134 77.1273
lradius 24.1779
lwrist 10.2457
lhand 30.1985 21.6213
lfingers 7.12502
lthumb 53.8853 40.5366
rfemur -30.6321 -14.9771 28.7313
rtibia 58.7699
rfoot 30.5825 -23.1135
rtoes 12.0712
lfemur -46.2707 3.92457 -38.0196
ltibia 40.8533
lfoot -36.1858 24.0085
ltoes 7.62938
93
root -0.248775 16.2559 -15.0129 -152.771 2.90641 177.852
lowerback -20.3455 -0.903606 -3.56229
upperback -9.14515 1.33892 -1.00119
thorax 1.46146 1.53942 1.2579
lowerneck -8.37242 2.21916 -1.38993
upperneck 37.4396 -2.6334 2.93415
head 14.2747 -2.71098 0.630434
rclavicle -1.40858e-014 1.35174e-014
rhumerus -41.1404 -18.5548 -61.6085
rradius 11.8831
rwrist 19.1385
rhand 20.598 8.95485
rfingers 7.12502
rthumb 45.0917 -14.5085
lclavicle -1.40858e-014 1.35174e-014
lhumerus -47.2834 -4.5301 77.4343
lradius 23.6738
lwrist 9.43637
lhand 29.8065 20.6969
lfingers 7.12502
lthumb 53.5329 39.8459
rfemur -30.5322 -14.0053 28.7823
rtibia 58.5961
rfoot 30.3448 -23.6828
rtoes 12.2328
lfemur -46.4124 4.00366 -37.7793
ltibia 40.8863
lfoot -36.7897 24.0256
ltoes 8.76659
94
root -0.257866 16.26 -15.002 -152.715 3.22989 177.335
lowerback -20.2444 -0.966891 -3.91796
upperback -9.24127 1.3483 -1.24927
thorax 1.30619 1.56416 1.19248
lowerneck -8.03644 2.28585 -1.20256
upperneck 37.2619 -2.55645 2.89423
head 14.1113 -2.66334 0.59531
rclavicle 3.73653e-015 2.78299e-015
rhumerus -40.7735 -18.0339 -61.6739
rradius 11.8927
rwrist 19.4594
rhand 20.7994 9.04033
rfingers 7.12502
rthumb 45.279 -14.3485
lclavicle 3.73653e-015 2.78299e-015
lhumerus -47.761 -5.89437 77.7264
lradius 24.2209
lwrist 8.64069
lhand 29.5726 20.184
lfingers 7.12502
lthumb 53.3223 39.4701
rfemur -30.5994 -14.0599 28.1378
rtibia 58.5656
rfoot 29.5541 -24.5064
rtoes 13.9937
lfemur -46.4291 3.8985 -38.4164
ltibia 40.8091
lfoot -36.7193 24.3322
ltoes 8.43357
